<svg xmlns="http://www.w3.org/2000/svg" viewBox="0 0 304.04 500.72"><defs><style>.cls-1{fill:#c2f6ff;}.cls-10,.cls-12,.cls-2,.cls-3,.cls-7,.cls-9{fill:none;}.cls-2,.cls-3{stroke:gray;}.cls-10,.cls-2,.cls-3,.cls-7,.cls-9{stroke-miterlimit:10;}.cls-10,.cls-2,.cls-3{stroke-width:2px;}.cls-3{stroke-dasharray:10 10;}.cls-4{font-size:12px;fill:#b40000;}.cls-11,.cls-4{font-family:MyriadPro-Regular, Myriad Pro;}.cls-5{letter-spacing:-0.01em;}.cls-6{letter-spacing:0em;}.cls-7{stroke:#999;}.cls-11,.cls-8{fill:#999;}.cls-10,.cls-12,.cls-9{stroke:#000;}.cls-12,.cls-9{stroke-width:3px;}.cls-11{font-size:9px;}.cls-12{stroke-linejoin:round;}</style></defs><title>bucket</title><g id="Layer_2" ><rect class="cls-1" x="100.64" y="421.83" width="100.26" height="78.89"/><path class="cls-1" d="M1.74,382.16h300a0,0,0,0,1,0,0v29.67a10,10,0,0,1-10,10h-280a10,10,0,0,1-10-10V382.16a0,0,0,0,1,0,0Z"/><line class="cls-2" x1="0.77" y1="28.53" x2="5.77" y2="28.53"/><line class="cls-3" x1="15.77" y1="28.53" x2="290.77" y2="28.53"/><line class="cls-2" x1="295.77" y1="28.53" x2="300.77" y2="28.53"/><text class="cls-4" transform="translate(14.56 18.72)">max. le<tspan class="cls-5" x="35.22" y="0">v</tspan><tspan class="cls-6" x="40.87" y="0">el</tspan></text><line class="cls-2" x1="4.04" y1="382.16" x2="9.04" y2="382.16"/><line class="cls-3" x1="19.04" y1="382.16" x2="294.04" y2="382.16"/><line class="cls-2" x1="299.04" y1="382.16" x2="304.04" y2="382.16"/><text class="cls-4" transform="translate(17.83 372.35)">min. le<tspan class="cls-5" x="33.35" y="0">v</tspan><tspan class="cls-6" x="39" y="0">el</tspan></text><line class="cls-7" x1="4.61" y1="203.98" x2="297.9" y2="203.98"/><polygon class="cls-8" points="5.2 205.98 1.74 203.98 5.2 201.99 5.2 205.98"/><polygon class="cls-8" points="297.32 205.98 300.77 203.98 297.32 201.99 297.32 205.98"/><line class="cls-9" y1="1.5" x2="100.64" y2="1.5"/><line class="cls-9" x1="203.02" y1="1.83" x2="303.66" y2="1.83"/><line class="cls-7" x1="103.51" y1="470.74" x2="197.59" y2="470.74"/><polygon class="cls-8" points="104.1 472.74 100.64 470.74 104.1 468.75 104.1 472.74"/><polygon class="cls-8" points="197.01 472.74 200.47 470.74 197.01 468.75 197.01 472.74"/><line class="cls-7" x1="103.43" y1="5.97" x2="200.06" y2="6.28"/><polygon class="cls-8" points="104 7.96 100.56 5.96 104.02 3.97 104 7.96"/><polygon class="cls-8" points="199.47 8.27 202.93 6.29 199.48 4.28 199.47 8.27"/><line class="cls-10" x1="100.56" y1="0.16" x2="100.56" y2="11.19"/><line class="cls-10" x1="202.93" y1="0.47" x2="202.93" y2="11.52"/><text class="cls-11" transform="translate(111 465.28)">outlet 2R</text><text class="cls-11" transform="translate(14.56 197.63)">buket 2R</text><text class="cls-11" transform="translate(113.96 18.72)">inlet 2R</text></g><g id="Layer_1"><path class="cls-12" d="M98.9,500V421.11H10a10,10,0,0,1-10-10V.78" transform="translate(1.74 0.72)"/><path class="cls-12" d="M300,.78V411.11a10,10,0,0,1-10,10H199.16V500" transform="translate(1.74 0.72)"/></g></svg>
